<mxfile host="app.diagrams.net" modified="2021-12-30T02:43:01.692Z" agent="5.0 (Windows NT 10.0; Win64; x64) AppleWebKit/537.36 (KHTML, like Gecko) Chrome/96.0.4664.110 Safari/537.36" etag="IRFZ_qpr0485_VETOXR4" version="16.1.0" type="github">
  <diagram id="CWL2jb8ki4yPNJSmUnaq" name="Page-1">
    <mxGraphModel dx="1422" dy="794" grid="1" gridSize="10" guides="1" tooltips="1" connect="1" arrows="1" fold="1" page="1" pageScale="1" pageWidth="827" pageHeight="1169" math="0" shadow="0">
      <root>
        <mxCell id="0" />
        <mxCell id="1" parent="0" />
        <mxCell id="oxDBfI-I0IamP0c3UvaX-6" style="edgeStyle=orthogonalEdgeStyle;rounded=0;orthogonalLoop=1;jettySize=auto;html=1;exitX=0;exitY=0.75;exitDx=0;exitDy=0;entryX=1;entryY=0.75;entryDx=0;entryDy=0;" parent="1" source="oxDBfI-I0IamP0c3UvaX-5" target="oxDBfI-I0IamP0c3UvaX-3" edge="1">
          <mxGeometry relative="1" as="geometry" />
        </mxCell>
        <mxCell id="oxDBfI-I0IamP0c3UvaX-2" style="edgeStyle=orthogonalEdgeStyle;rounded=0;orthogonalLoop=1;jettySize=auto;html=1;exitX=1;exitY=0.25;exitDx=0;exitDy=0;entryX=0;entryY=0.25;entryDx=0;entryDy=0;" parent="1" source="oxDBfI-I0IamP0c3UvaX-1" target="oxDBfI-I0IamP0c3UvaX-3" edge="1">
          <mxGeometry relative="1" as="geometry">
            <mxPoint x="400" y="300" as="targetPoint" />
            <Array as="points" />
          </mxGeometry>
        </mxCell>
        <mxCell id="oxDBfI-I0IamP0c3UvaX-1" value="클라이언트" style="rounded=0;whiteSpace=wrap;html=1;fillColor=#ffe6cc;strokeColor=#d79b00;" parent="1" vertex="1">
          <mxGeometry x="120" y="280" width="120" height="80" as="geometry" />
        </mxCell>
        <mxCell id="O8vcaQ-OUbyJKKyJnWJz-3" style="edgeStyle=orthogonalEdgeStyle;rounded=0;orthogonalLoop=1;jettySize=auto;html=1;exitX=1;exitY=0.25;exitDx=0;exitDy=0;entryX=0;entryY=0.25;entryDx=0;entryDy=0;" parent="1" source="oxDBfI-I0IamP0c3UvaX-3" target="oxDBfI-I0IamP0c3UvaX-5" edge="1">
          <mxGeometry relative="1" as="geometry" />
        </mxCell>
        <mxCell id="O8vcaQ-OUbyJKKyJnWJz-4" style="edgeStyle=orthogonalEdgeStyle;rounded=0;orthogonalLoop=1;jettySize=auto;html=1;exitX=0;exitY=0.75;exitDx=0;exitDy=0;entryX=1;entryY=0.75;entryDx=0;entryDy=0;" parent="1" source="oxDBfI-I0IamP0c3UvaX-3" target="oxDBfI-I0IamP0c3UvaX-1" edge="1">
          <mxGeometry relative="1" as="geometry" />
        </mxCell>
        <mxCell id="oxDBfI-I0IamP0c3UvaX-3" value="캐시 서버" style="rounded=0;whiteSpace=wrap;html=1;fillColor=#e1d5e7;strokeColor=#9673a6;" parent="1" vertex="1">
          <mxGeometry x="400" y="280" width="120" height="80" as="geometry" />
        </mxCell>
        <mxCell id="oxDBfI-I0IamP0c3UvaX-5" value="오리진 서버" style="rounded=0;whiteSpace=wrap;html=1;fillColor=#fff2cc;strokeColor=#d6b656;" parent="1" vertex="1">
          <mxGeometry x="680" y="280" width="120" height="80" as="geometry" />
        </mxCell>
        <mxCell id="O8vcaQ-OUbyJKKyJnWJz-1" value="GET /index.html HTTP/1.1" style="text;html=1;align=center;verticalAlign=middle;resizable=0;points=[];autosize=1;strokeColor=none;fillColor=none;" parent="1" vertex="1">
          <mxGeometry x="240" y="280" width="160" height="20" as="geometry" />
        </mxCell>
        <mxCell id="O8vcaQ-OUbyJKKyJnWJz-2" value="GET /index.html HTTP/1.1" style="text;html=1;align=center;verticalAlign=middle;resizable=0;points=[];autosize=1;strokeColor=none;fillColor=none;" parent="1" vertex="1">
          <mxGeometry x="520" y="280" width="160" height="20" as="geometry" />
        </mxCell>
        <mxCell id="O8vcaQ-OUbyJKKyJnWJz-5" value="index.html" style="shape=note;whiteSpace=wrap;html=1;backgroundOutline=1;darkOpacity=0.05;size=16;" parent="1" vertex="1">
          <mxGeometry x="490" y="350" width="60" height="70" as="geometry" />
        </mxCell>
        <mxCell id="O8vcaQ-OUbyJKKyJnWJz-6" value="index.html 리스폰스를 전송할 때&lt;br&gt;리소스 사본을 캐시 서버에 남겨둔다" style="text;html=1;align=center;verticalAlign=middle;resizable=0;points=[];autosize=1;strokeColor=none;fillColor=none;" parent="1" vertex="1">
          <mxGeometry x="550" y="370" width="210" height="30" as="geometry" />
        </mxCell>
        <mxCell id="4YaOUFF8qnQoxcMemlMo-1" value="클라이언트" style="rounded=0;whiteSpace=wrap;html=1;fillColor=#ffe6cc;strokeColor=#d79b00;" vertex="1" parent="1">
          <mxGeometry x="120" y="520" width="120" height="80" as="geometry" />
        </mxCell>
        <mxCell id="4YaOUFF8qnQoxcMemlMo-6" style="edgeStyle=orthogonalEdgeStyle;rounded=0;orthogonalLoop=1;jettySize=auto;html=1;exitX=0;exitY=0.75;exitDx=0;exitDy=0;entryX=1;entryY=0.75;entryDx=0;entryDy=0;" edge="1" parent="1" source="4YaOUFF8qnQoxcMemlMo-2" target="4YaOUFF8qnQoxcMemlMo-1">
          <mxGeometry relative="1" as="geometry" />
        </mxCell>
        <mxCell id="4YaOUFF8qnQoxcMemlMo-2" value="캐시 서버" style="rounded=0;whiteSpace=wrap;html=1;fillColor=#e1d5e7;strokeColor=#9673a6;" vertex="1" parent="1">
          <mxGeometry x="400" y="520" width="120" height="80" as="geometry" />
        </mxCell>
        <mxCell id="4YaOUFF8qnQoxcMemlMo-4" value="GET /index.html HTTP/1.1" style="text;html=1;align=center;verticalAlign=middle;resizable=0;points=[];autosize=1;strokeColor=none;fillColor=none;" vertex="1" parent="1">
          <mxGeometry x="240" y="520" width="160" height="20" as="geometry" />
        </mxCell>
        <mxCell id="4YaOUFF8qnQoxcMemlMo-5" style="edgeStyle=orthogonalEdgeStyle;rounded=0;orthogonalLoop=1;jettySize=auto;html=1;exitX=1;exitY=0.25;exitDx=0;exitDy=0;entryX=0;entryY=0.25;entryDx=0;entryDy=0;" edge="1" parent="1">
          <mxGeometry relative="1" as="geometry">
            <mxPoint x="400" y="540" as="targetPoint" />
            <Array as="points" />
            <mxPoint x="240" y="540" as="sourcePoint" />
          </mxGeometry>
        </mxCell>
        <mxCell id="4YaOUFF8qnQoxcMemlMo-7" value="index.html" style="shape=note;whiteSpace=wrap;html=1;backgroundOutline=1;darkOpacity=0.05;size=16;" vertex="1" parent="1">
          <mxGeometry x="500" y="525" width="60" height="70" as="geometry" />
        </mxCell>
        <mxCell id="4YaOUFF8qnQoxcMemlMo-8" value="index.html을 캐시해둔 리소스의&lt;br&gt;유효성 등을 오리진 서버에 확인하러&lt;br&gt;가는 경우도 있다" style="text;html=1;align=center;verticalAlign=middle;resizable=0;points=[];autosize=1;strokeColor=none;fillColor=none;" vertex="1" parent="1">
          <mxGeometry x="560" y="540" width="210" height="50" as="geometry" />
        </mxCell>
      </root>
    </mxGraphModel>
  </diagram>
</mxfile>
